<?xml version="1.0" encoding="utf-8"?>
<!-- Generator: Adobe Illustrator 17.0.0, SVG Export Plug-In . SVG Version: 6.00 Build 0)  -->
<!DOCTYPE svg PUBLIC "-//W3C//DTD SVG 1.1//EN" "http://www.w3.org/Graphics/SVG/1.1/DTD/svg11.dtd">
<svg version="1.1" id="Capa_1" xmlns="http://www.w3.org/2000/svg" xmlns:xlink="http://www.w3.org/1999/xlink" x="0px" y="0px"
	 width="43px" height="43px" viewBox="0 0 43 43" enable-background="new 0 0 43 43" xml:space="preserve">
<g>
	<g>
		<path fill="#D63F49" d="M-75.859,31.071l-20.486,11.828c-0.083,0.047-0.175,0.071-0.267,0.071s-0.184-0.024-0.267-0.071
			l-20.486-11.828l-2.886,1.666V46.08c0,0.191,0.102,0.367,0.267,0.462l23.105,13.34c0.083,0.047,0.175,0.071,0.267,0.071
			s0.184-0.024,0.267-0.071l23.105-13.339c0.165-0.095,0.267-0.271,0.267-0.462V32.737L-75.859,31.071z"/>
		<path fill="#D63F49" d="M-96.878,16.982c0.165-0.095,0.368-0.095,0.534,0l23.372,13.494V19.401c0-0.191-0.102-0.367-0.267-0.462
			l-23.105-13.34c-0.165-0.095-0.368-0.095-0.534,0l-23.105,13.34c-0.165,0.095-0.267,0.271-0.267,0.462v11.076L-96.878,16.982z"/>
	</g>
	<g>
		<path fill="#333333" d="M-128.923,79.456c0.449,1.433,2.366,1.744,3.747,1.744c1.468,0,3.747-0.449,3.747-2.193
			c0-1.502-1.812-1.623-3.712-1.779c-2.383-0.191-4.94-0.415-4.94-2.988c0-2.279,2.625-3.298,4.731-3.298
			c1.814,0,4.076,0.432,4.8,2.4c0.26,0.691-0.914,1.002-1.174,0.414c-0.517-1.312-2.365-1.537-3.609-1.537
			c-1.156,0-3.401,0.467-3.401,2.038c0,1.502,1.727,1.658,3.73,1.813c2.365,0.207,4.904,0.328,4.904,2.918
			c0,2.642-2.953,3.453-5.077,3.453c-1.762,0-4.456-0.604-5.025-2.676C-130.408,79.007-129.061,78.748-128.923,79.456z"/>
		<path fill="#333333" d="M-111.439,77.746l-4.369-5.785c-0.519-0.69,0.621-1.329,1.087-0.639l3.903,5.336l3.954-5.353
			c0.432-0.657,1.503-0.104,1.036,0.621l-4.334,5.819v3.868c0,0.432-0.346,0.639-0.64,0.639c-0.346,0-0.638-0.207-0.638-0.639
			V77.746z"/>
		<path fill="#333333" d="M-99.275,78.334v3.35c0,0.794-1.261,0.794-1.261,0.017v-9.912c0-0.362,0.26-0.604,0.64-0.604h4.092
			c2.988,0,4.508,1.692,4.508,3.713c0,1.744-0.951,3.005-3.074,3.367l2.797,3.022c0.657,0.656-0.292,1.416-0.863,0.829l-3.488-3.782
			H-99.275z M-99.275,77.246h3.488c2.262,0,3.247-1.053,3.211-2.348c-0.017-1.416-1.209-2.556-3.211-2.556h-3.488V77.246z"/>
		<path fill="#333333" d="M-84.467,79.283l-1.399,2.729c-0.311,0.639-1.451,0.191-1.139-0.501l5.214-10.275
			c0.104-0.224,0.346-0.328,0.571-0.328c0.224,0,0.432,0.103,0.553,0.328l5.197,10.223c0.45,0.743-0.828,1.175-1.156,0.501
			l-1.347-2.677H-84.467z M-81.221,72.756l-2.729,5.439h5.44L-81.221,72.756z"/>
		<path fill="#333333" d="M-63.635,71.185c0.846,0,0.846,1.192,0,1.192h-3.85c0,3.108,0.017,6.268,0.017,9.376
			c0,0.432-0.363,0.639-0.657,0.639c-0.292,0-0.621-0.207-0.621-0.639v-9.376h-3.833c-0.811,0-0.811-1.192,0-1.192H-63.635z"/>
	</g>
</g>
<g>
	<path fill="#D63F49" d="M30.359,17.769c0-2.376-1.559-3.24-4.344-3.24h-3.144v6.695h3.144
		C28.799,21.224,30.359,20.096,30.359,17.769z"/>
	<path fill="#D63F49" d="M21.5,0.5c-11.598,0-21,9.402-21,21c0,11.598,9.402,21,21,21s21-9.402,21-21
		C42.5,9.902,33.098,0.5,21.5,0.5z M12.305,29.407h-1.104V13.593h1.104V29.407z M30.527,29.407l-4.295-7.271h-3.361v7.271h-1.104
		V13.593h4.535c3.144,0,5.184,1.151,5.184,4.176c0,2.519-1.559,3.982-4.055,4.295l4.367,7.343H30.527z"/>
</g>
</svg>
