<?xml version="1.0" encoding="utf-8"?>
<!-- Generator: Adobe Illustrator 17.0.0, SVG Export Plug-In . SVG Version: 6.00 Build 0)  -->
<!DOCTYPE svg PUBLIC "-//W3C//DTD SVG 1.1 Basic//EN" "http://www.w3.org/Graphics/SVG/1.1/DTD/svg11-basic.dtd">
<svg version="1.1" baseProfile="basic" id="Capa_1" xmlns="http://www.w3.org/2000/svg" xmlns:xlink="http://www.w3.org/1999/xlink"
	 x="0px" y="0px" width="300px" height="110px" viewBox="0 0 300 110" xml:space="preserve">
<g>
	<g>
		<path fill="#FFFFFF" d="M121.275,54.31c-2.126-1.117-6.843-1.819-14.02-2.088c-6.02-0.219-9.606-0.534-10.66-0.934
			c-0.981-0.372-1.478-1.538-1.478-3.465c0-1.637,0.606-2.677,1.853-3.182c1.183-0.478,3.654-0.502,7.588-0.502l2.749-0.002
			c2.418,0,4.189,0.028,4.962,0.393c0.909,0.429,1.472,1.522,1.672,3.222c0,0.157,0.024,0.386,0.073,0.699l0.03,0.19h9.346v-1.458
			c0-3.432-1.315-5.774-3.908-6.963c-2.536-1.162-7.496-1.751-14.742-1.751c-7.647,0-12.829,0.642-15.401,1.908
			c-2.624,1.291-3.955,3.9-3.955,7.754c0,3.417,0.251,6.64,3.282,8.527c1.457,0.907,4.221,0.923,8.405,0.948
			c1.853,0.011,3.954,0.023,6.318,0.116l5.048,0.214c2.796,0.109,4.631,0.413,5.454,0.905c0.782,0.468,1.179,1.452,1.179,2.925
			c0,2.017-0.529,3.314-1.573,3.854c-1.092,0.566-3.694,0.852-7.734,0.852c-5.193,0-8.406-0.249-9.548-0.741
			c-1.081-0.464-1.629-1.791-1.629-3.954l-0.046-0.901h-9.339l0.042,1.411c0,3.838,1.295,6.426,3.848,7.695
			c2.502,1.243,7.613,1.873,15.19,1.873c8.97,0,14.592-0.063,17.042-1.31c2.865-1.457,3.232-5.647,3.232-9.135
			C124.555,57.842,123.451,55.453,121.275,54.31z"/>
		<path fill="#FFFFFF" d="M153.3,47.362c-0.538,0.587-1.268,1.478-2.165,2.642l-2.052,2.525h-0.041l-0.958-1.221l-1.057-1.301
			c-0.996-1.276-1.712-2.165-2.128-2.642l-7.529-8.536l-0.067-0.076h-11.569l18.261,20.324v12.492h9.914v-12.49l18.783-20.326
			h-11.724L153.3,47.362z"/>
		<path fill="#FFFFFF" d="M214.177,48.51c0-3.671-1.164-6.248-3.461-7.661c-2.261-1.391-6.409-2.096-12.33-2.096h-23.98v32.816
			h9.591v-9.598h12.942c4.789,0,7.118,1.563,7.118,4.778v4.82h9.591v-6.396c0-3.819-2.412-5.982-7.172-6.437
			c2.68-0.493,4.852-1.461,6.055-2.714C214.177,54.305,214.177,51.875,214.177,48.51z M183.997,45.776h13.542
			c2.924,0,4.832,0.324,5.671,0.962c0.741,0.565,1.235,1.437,1.235,3.859c0,2.202-0.495,2.667-1.443,3.363
			c-0.979,0.719-3.031,1.083-6.098,1.083h-12.906V45.776z"/>
		<path fill="#FFFFFF" d="M233.135,38.753l-16.922,32.816h10.579l3.125-6.212h21.377l3.198,6.212h10.397l-17.183-32.816H233.135z
			 M248.856,60.378h-16.47l8.165-16.139L248.856,60.378z"/>
		<polygon fill="#FFFFFF" points="261.246,38.753 261.246,46.784 275.154,46.784 275.154,71.569 284.744,71.569 284.744,46.784 
			299.146,46.784 299.146,38.753 		"/>
	</g>
	<g>
		<path fill="#FFFFFF" d="M117.597,83.351h-2.503c-0.014-0.097-0.02-0.168-0.02-0.214c-0.06-0.585-0.228-0.952-0.505-1.102
			c-0.277-0.15-0.93-0.225-1.959-0.225c-1.213,0-2.007,0.087-2.379,0.259c-0.373,0.173-0.559,0.537-0.559,1.091
			c0,0.656,0.152,1.05,0.455,1.182c0.303,0.132,1.306,0.234,3.007,0.305c2.011,0.087,3.312,0.308,3.902,0.664
			c0.59,0.356,0.885,1.096,0.885,2.22c0,1.383-0.346,2.277-1.039,2.681c-0.693,0.404-2.219,0.606-4.58,0.606
			c-2.124,0-3.533-0.198-4.229-0.595c-0.696-0.397-1.043-1.2-1.043-2.41l-0.01-0.381h2.493l0.01,0.221
			c0,0.727,0.165,1.172,0.495,1.335c0.33,0.163,1.23,0.244,2.701,0.244c1.148,0,1.88-0.094,2.196-0.282
			c0.317-0.188,0.475-0.623,0.475-1.304c0-0.504-0.12-0.838-0.361-1.003c-0.241-0.165-0.76-0.266-1.558-0.301l-1.415-0.069
			c-2.136-0.097-3.502-0.325-4.096-0.686c-0.593-0.361-0.89-1.137-0.89-2.326c0-1.215,0.358-2.025,1.073-2.429
			c0.715-0.404,2.145-0.606,4.288-0.606c2.031,0,3.4,0.186,4.106,0.557c0.705,0.371,1.058,1.096,1.058,2.174V83.351z"/>
		<path fill="#FFFFFF" d="M125.728,88.392h2.275v0.282c0,1.424-1.385,2.136-4.155,2.136c-1.879,0-3.109-0.247-3.689-0.74
			c-0.58-0.493-0.871-1.538-0.871-3.135c0-1.419,0.304-2.372,0.91-2.86c0.607-0.488,1.79-0.732,3.551-0.732
			c1.688,0,2.819,0.238,3.393,0.713s0.861,1.41,0.861,2.803v0.534h-6.401c-0.013,0.163-0.02,0.27-0.02,0.32
			c0,0.717,0.144,1.195,0.431,1.434c0.286,0.239,0.859,0.359,1.716,0.359c0.831,0,1.372-0.07,1.623-0.21
			C125.603,89.157,125.728,88.855,125.728,88.392z M125.748,86.325l-0.01-0.29c0-0.58-0.131-0.956-0.391-1.129
			c-0.261-0.173-0.826-0.259-1.697-0.259c-0.844,0-1.393,0.104-1.647,0.313c-0.254,0.209-0.381,0.664-0.381,1.366H125.748z"/>
		<path fill="#FFFFFF" d="M129.952,83.435h2.265l-0.138,1.022l0.049,0.008c0.541-0.763,1.391-1.144,2.552-1.144
			c1.662,0,2.493,0.809,2.493,2.426v0.511h-2.137c0.026-0.198,0.039-0.328,0.039-0.389c0-0.778-0.392-1.167-1.177-1.167
			c-1.121,0-1.682,0.577-1.682,1.731v4.294h-2.265V83.435z"/>
		<path fill="#FFFFFF" d="M146.314,83.435l-2.71,7.292h-3.541l-2.849-7.292h2.404l1.247,3.364c0.171,0.468,0.329,0.92,0.475,1.358
			l0.227,0.679l0.227,0.679h0.049l0.208-0.679l0.208-0.671c0.158-0.509,0.307-0.961,0.445-1.358l1.167-3.371H146.314z"/>
		<path fill="#FFFFFF" d="M149.598,80.315v1.457h-2.265v-1.457H149.598z M149.598,83.435v7.292h-2.265v-7.292H149.598z"/>
		<path fill="#FFFFFF" d="M157.849,87.943h2.255v0.252l-0.138,1.106c-0.277,1.007-1.629,1.51-4.056,1.51
			c-1.781,0-2.964-0.248-3.551-0.744c-0.587-0.496-0.881-1.494-0.881-2.994c0-1.464,0.294-2.451,0.881-2.959
			c0.587-0.508,1.728-0.763,3.423-0.763c1.636,0,2.744,0.184,3.324,0.553c0.58,0.369,0.87,1.069,0.87,2.101h-2.246
			c0-0.849-0.637-1.274-1.909-1.274c-0.904,0-1.471,0.135-1.701,0.404c-0.231,0.27-0.347,0.931-0.347,1.983
			c0,1.017,0.127,1.657,0.381,1.918c0.254,0.262,0.875,0.393,1.864,0.393c0.778,0,1.278-0.09,1.499-0.271
			C157.738,88.979,157.849,88.573,157.849,87.943z"/>
		<path fill="#FFFFFF" d="M164.031,80.315v1.457h-2.265v-1.457H164.031z M164.031,83.435v7.292h-2.265v-7.292H164.031z"/>
		<path fill="#FFFFFF" d="M170.412,83.351c1.827,0,3.024,0.225,3.591,0.675c0.567,0.45,0.851,1.4,0.851,2.849
			c0,1.617-0.277,2.677-0.831,3.181c-0.554,0.504-1.721,0.755-3.502,0.755c-1.932,0-3.183-0.234-3.754-0.702
			c-0.571-0.468-0.856-1.497-0.856-3.089c0-1.53,0.28-2.525,0.841-2.982C167.312,83.58,168.532,83.351,170.412,83.351z
			 M170.392,84.731c-0.943,0-1.543,0.131-1.8,0.393c-0.257,0.262-0.386,0.873-0.386,1.835c0,1.098,0.122,1.785,0.366,2.059
			c0.244,0.275,0.854,0.412,1.83,0.412c0.943,0,1.538-0.145,1.786-0.435c0.248-0.29,0.371-0.987,0.371-2.09
			c0-0.931-0.128-1.526-0.386-1.785C171.915,84.861,171.322,84.731,170.392,84.731z"/>
		<path fill="#FFFFFF" d="M189.593,83.435l-2.483,7.75c-0.35,1.098-0.783,1.837-1.301,2.216c-0.518,0.379-1.347,0.568-2.488,0.568
			c-0.257,0-0.524-0.01-0.801-0.031v-1.289c0.198,0.01,0.362,0.015,0.495,0.015c0.962,0,1.573-0.646,1.83-1.937h-1.157l-3.096-7.292
			h2.433l1.187,3.089l0.594,1.548c0.033,0.102,0.125,0.361,0.277,0.778l0.287,0.77h0.049l0.208-0.77
			c0.106-0.397,0.175-0.656,0.208-0.778l0.465-1.548l0.91-3.089H189.593z"/>
		<path fill="#FFFFFF" d="M195.746,90.727V80.315h6.657c1.655,0,2.796,0.221,3.423,0.664c0.626,0.442,0.94,1.243,0.94,2.403
			c0,1.053-0.157,1.772-0.47,2.159c-0.313,0.386-0.955,0.654-1.924,0.801v0.069c1.497,0.071,2.246,0.745,2.246,2.021v2.296h-2.562
			v-1.899c0-1.073-0.686-1.61-2.058-1.61h-3.69v3.509H195.746z M198.308,85.555h3.68c0.877,0,1.459-0.121,1.746-0.362
			c0.287-0.241,0.431-0.726,0.431-1.453c0-0.742-0.124-1.221-0.371-1.438c-0.248-0.216-0.79-0.324-1.627-0.324h-3.858V85.555z"/>
		<path fill="#FFFFFF" d="M214.828,88.392h2.275v0.282c0,1.424-1.385,2.136-4.155,2.136c-1.879,0-3.109-0.247-3.689-0.74
			c-0.58-0.493-0.871-1.538-0.871-3.135c0-1.419,0.304-2.372,0.91-2.86c0.607-0.488,1.79-0.732,3.551-0.732
			c1.688,0,2.819,0.238,3.393,0.713s0.861,1.41,0.861,2.803v0.534h-6.401c-0.013,0.163-0.02,0.27-0.02,0.32
			c0,0.717,0.144,1.195,0.431,1.434c0.286,0.239,0.859,0.359,1.716,0.359c0.831,0,1.372-0.07,1.623-0.21
			C214.703,89.157,214.828,88.855,214.828,88.392z M214.848,86.325l-0.01-0.29c0-0.58-0.131-0.956-0.391-1.129
			c-0.261-0.173-0.826-0.259-1.697-0.259c-0.844,0-1.393,0.104-1.647,0.313c-0.254,0.209-0.381,0.664-0.381,1.366H214.848z"/>
		<path fill="#FFFFFF" d="M219.458,90.727v-5.965h-1.335v-1.327h1.335v-0.778c0-0.925,0.259-1.565,0.777-1.918
			c0.517-0.353,1.456-0.53,2.814-0.53c0.231,0,0.551,0.008,0.96,0.023v1.366c-0.31-0.056-0.574-0.084-0.792-0.084
			c-0.996,0-1.494,0.382-1.494,1.144v0.778h2.355v1.327h-2.355v5.965H219.458z"/>
		<path fill="#FFFFFF" d="M227.678,85.547h-2.315c0-0.874,0.264-1.459,0.792-1.754c0.527-0.295,1.573-0.442,3.136-0.442
			c1.701,0,2.852,0.181,3.452,0.542c0.6,0.361,0.9,1.05,0.9,2.067v4.767h-2.265l0.109-0.999l-0.059-0.008
			c-0.435,0.727-1.441,1.091-3.017,1.091c-2.288,0-3.433-0.75-3.433-2.25c0-1.515,1.171-2.273,3.512-2.273
			c1.563,0,2.512,0.277,2.849,0.831h0.04v-1.182c0-0.57-0.129-0.947-0.386-1.133c-0.257-0.186-0.785-0.278-1.583-0.278
			C228.255,84.525,227.678,84.866,227.678,85.547z M229.191,87.462c-1.28,0-1.919,0.341-1.919,1.022
			c0,0.473,0.132,0.783,0.396,0.931c0.263,0.148,0.817,0.221,1.662,0.221c1.378,0,2.068-0.359,2.068-1.076
			C231.398,87.828,230.662,87.462,229.191,87.462z"/>
		<path fill="#FFFFFF" d="M241.923,87.943h2.255v0.252l-0.138,1.106c-0.277,1.007-1.629,1.51-4.056,1.51
			c-1.781,0-2.964-0.248-3.551-0.744c-0.587-0.496-0.881-1.494-0.881-2.994c0-1.464,0.294-2.451,0.881-2.959
			c0.587-0.508,1.728-0.763,3.423-0.763c1.636,0,2.744,0.184,3.324,0.553c0.58,0.369,0.87,1.069,0.87,2.101h-2.246
			c0-0.849-0.637-1.274-1.909-1.274c-0.904,0-1.471,0.135-1.701,0.404c-0.231,0.27-0.347,0.931-0.347,1.983
			c0,1.017,0.127,1.657,0.381,1.918c0.254,0.262,0.875,0.393,1.864,0.393c0.778,0,1.278-0.09,1.499-0.271
			C241.812,88.979,241.923,88.573,241.923,87.943z"/>
		<path fill="#FFFFFF" d="M251.865,87.943h2.255v0.252l-0.138,1.106c-0.277,1.007-1.629,1.51-4.056,1.51
			c-1.781,0-2.964-0.248-3.551-0.744c-0.587-0.496-0.881-1.494-0.881-2.994c0-1.464,0.294-2.451,0.881-2.959
			c0.587-0.508,1.728-0.763,3.423-0.763c1.636,0,2.744,0.184,3.324,0.553c0.58,0.369,0.87,1.069,0.87,2.101h-2.246
			c0-0.849-0.637-1.274-1.909-1.274c-0.904,0-1.471,0.135-1.701,0.404c-0.231,0.27-0.347,0.931-0.347,1.983
			c0,1.017,0.127,1.657,0.381,1.918c0.254,0.262,0.875,0.393,1.864,0.393c0.778,0,1.278-0.09,1.499-0.271
			C251.754,88.979,251.865,88.573,251.865,87.943z"/>
		<path fill="#FFFFFF" d="M258.047,80.315v1.457h-2.265v-1.457H258.047z M258.047,83.435v7.292h-2.265v-7.292H258.047z"/>
		<path fill="#FFFFFF" d="M264.428,83.351c1.827,0,3.024,0.225,3.591,0.675s0.851,1.4,0.851,2.849c0,1.617-0.277,2.677-0.831,3.181
			c-0.554,0.504-1.721,0.755-3.502,0.755c-1.932,0-3.183-0.234-3.754-0.702c-0.571-0.468-0.856-1.497-0.856-3.089
			c0-1.53,0.28-2.525,0.841-2.982C261.328,83.58,262.548,83.351,264.428,83.351z M264.408,84.731c-0.943,0-1.543,0.131-1.8,0.393
			c-0.257,0.262-0.386,0.873-0.386,1.835c0,1.098,0.122,1.785,0.366,2.059c0.244,0.275,0.854,0.412,1.83,0.412
			c0.943,0,1.539-0.145,1.786-0.435c0.247-0.29,0.371-0.987,0.371-2.09c0-0.931-0.128-1.526-0.386-1.785
			C265.931,84.861,265.337,84.731,264.408,84.731z"/>
		<path fill="#FFFFFF" d="M270.759,83.435h2.246l-0.089,1.228l0.049,0.007c0.442-0.88,1.431-1.32,2.968-1.32
			c2.235,0,3.353,0.803,3.353,2.41v4.966h-2.265v-4.394v-0.274l-0.049-0.511c-0.106-0.544-0.66-0.816-1.662-0.816
			c-1.523,0-2.285,0.557-2.285,1.67v4.325h-2.265V83.435z"/>
		<path fill="#FFFFFF" d="M287.595,88.392h2.275v0.282c0,1.424-1.385,2.136-4.155,2.136c-1.879,0-3.109-0.247-3.689-0.74
			c-0.58-0.493-0.871-1.538-0.871-3.135c0-1.419,0.304-2.372,0.91-2.86c0.607-0.488,1.79-0.732,3.551-0.732
			c1.688,0,2.819,0.238,3.393,0.713c0.574,0.475,0.861,1.41,0.861,2.803v0.534h-6.401c-0.013,0.163-0.02,0.27-0.02,0.32
			c0,0.717,0.144,1.195,0.431,1.434c0.286,0.239,0.859,0.359,1.716,0.359c0.831,0,1.372-0.07,1.623-0.21
			C287.47,89.157,287.595,88.855,287.595,88.392z M287.615,86.325l-0.01-0.29c0-0.58-0.131-0.956-0.391-1.129
			c-0.261-0.173-0.826-0.259-1.697-0.259c-0.844,0-1.393,0.104-1.647,0.313c-0.254,0.209-0.381,0.664-0.381,1.366H287.615z"/>
		<path fill="#FFFFFF" d="M299.654,85.441h-2.216c-0.013-0.061-0.023-0.107-0.029-0.137c-0.046-0.351-0.177-0.569-0.391-0.656
			c-0.215-0.086-0.734-0.13-1.558-0.13c-1.181,0-1.771,0.295-1.771,0.885c0,0.402,0.104,0.641,0.311,0.717
			c0.208,0.076,0.912,0.137,2.112,0.183c1.616,0.061,2.667,0.226,3.155,0.496c0.488,0.27,0.732,0.821,0.732,1.655
			c0,0.89-0.325,1.506-0.974,1.85c-0.65,0.343-1.815,0.515-3.497,0.515c-1.616,0-2.72-0.155-3.314-0.465
			c-0.593-0.31-0.89-0.89-0.89-1.739v-0.183h2.355c-0.033,0.102-0.053,0.183-0.06,0.244c-0.092,0.646,0.554,0.969,1.939,0.969
			c1.431,0,2.147-0.32,2.147-0.961c0-0.615-0.449-0.923-1.345-0.923c-2.025,0-3.358-0.147-4.001-0.442
			c-0.643-0.295-0.965-0.908-0.965-1.838c0-0.834,0.294-1.398,0.881-1.693c0.587-0.295,1.715-0.442,3.383-0.442
			c1.576,0,2.636,0.142,3.18,0.427C299.382,84.055,299.654,84.612,299.654,85.441z"/>
	</g>
	<g>
		<path fill="#FFFFFF" d="M97.472,45.894c-0.524,0.212-1.01,0.593-1.01,1.929c0,1.197,0.239,2.061,0.608,2.201
			c0.416,0.158,2.244,0.557,10.233,0.848c0.394,0.015,0.776,0.031,1.154,0.049c-0.119-1.837-0.328-3.649-0.623-5.432
			c-0.185,0-0.363,0-0.527,0l-2.748,0.002C101.429,45.489,98.474,45.489,97.472,45.894z"/>
		<path fill="#FFFFFF" d="M104.281,73.205c-7.895,0-13.059-0.658-15.786-2.013c-2.097-1.042-4.598-3.432-4.598-8.905l-0.084-2.762
			h12.004l0.114,2.217v0.035c0,1.502,0.297,2.49,0.813,2.712c0.442,0.19,2.204,0.632,9.019,0.632c0.651,0,1.244-0.008,1.784-0.022
			c0.374-1.904,0.648-3.845,0.819-5.815l-5.034-0.213c-2.334-0.092-4.419-0.104-6.259-0.115c-4.58-0.027-7.338-0.043-9.117-1.15
			c-3.616-2.251-3.919-6.014-3.919-9.675c0-5.496,2.561-7.91,4.709-8.967c2.797-1.377,8.028-2.046,15.993-2.046
			c0.346,0,0.68,0.003,1.015,0.005c-2.586-7.72-6.844-14.668-12.346-20.407L66.284,33.341c-1.145,8.855-8.681,15.697-17.814,15.697
			c-9.924,0-17.97-8.077-17.97-18.04c0-9.963,8.045-18.04,17.97-18.04c6.995,0,13.053,4.015,16.021,9.873L85.538,9.932
			C76.702,3.676,65.923,0,54.289,0C24.306,0,0,24.4,0,54.5c0,19.168,9.859,36.023,24.762,45.738l20.813-12.756
			c-1.535-2.585-2.42-5.605-2.42-8.833c0-9.542,7.705-17.277,17.21-17.277s17.21,7.735,17.21,17.277
			c0,9.542-7.705,17.277-17.21,17.277c-2.536,0-4.942-0.555-7.11-1.544L35.117,105.5c5.962,2.26,12.422,3.5,19.172,3.5
			c23.437,0,43.405-14.91,51.007-35.796C104.959,73.204,104.628,73.205,104.281,73.205z"/>
	</g>
</g>
</svg>
