<?xml version="1.0" encoding="utf-8"?>
<!-- Generator: Adobe Illustrator 17.0.0, SVG Export Plug-In . SVG Version: 6.00 Build 0)  -->
<!DOCTYPE svg PUBLIC "-//W3C//DTD SVG 1.1//EN" "http://www.w3.org/Graphics/SVG/1.1/DTD/svg11.dtd">
<svg version="1.1" id="Capa_1" xmlns="http://www.w3.org/2000/svg" xmlns:xlink="http://www.w3.org/1999/xlink" x="0px" y="0px"
	 width="70px" height="88px" viewBox="0 0 70 88" enable-background="new 0 0 70 88" xml:space="preserve">
<g>
	<g>
		<path fill="#D63F49" d="M55.753,31.071L35.267,42.899C35.184,42.946,35.092,42.97,35,42.97s-0.184-0.024-0.267-0.071
			L14.247,31.071l-2.886,1.666V46.08c0,0.191,0.102,0.367,0.267,0.462l23.105,13.34c0.083,0.047,0.175,0.071,0.267,0.071
			s0.184-0.024,0.267-0.071l23.105-13.339c0.165-0.095,0.267-0.271,0.267-0.462V32.737L55.753,31.071z"/>
		<path fill="#D63F49" d="M34.733,16.982c0.165-0.095,0.368-0.095,0.534,0l23.372,13.494V19.401c0-0.191-0.102-0.367-0.267-0.462
			L35.267,5.599c-0.165-0.095-0.368-0.095-0.534,0l-23.105,13.34c-0.165,0.095-0.267,0.271-0.267,0.462v11.076L34.733,16.982z"/>
	</g>
	<g>
		<path fill="#333333" d="M2.688,79.456C3.137,80.89,5.055,81.2,6.435,81.2c1.468,0,3.747-0.449,3.747-2.193
			c0-1.502-1.812-1.623-3.712-1.779c-2.383-0.191-4.94-0.415-4.94-2.988c0-2.279,2.625-3.298,4.731-3.298
			c1.814,0,4.076,0.432,4.8,2.4c0.26,0.691-0.914,1.002-1.174,0.414c-0.517-1.312-2.365-1.537-3.609-1.537
			c-1.156,0-3.401,0.467-3.401,2.038c0,1.502,1.727,1.658,3.73,1.813c2.365,0.207,4.904,0.328,4.904,2.918
			c0,2.642-2.953,3.453-5.077,3.453c-1.762,0-4.456-0.604-5.025-2.676C1.203,79.007,2.55,78.748,2.688,79.456z"/>
		<path fill="#333333" d="M20.173,77.746l-4.369-5.785c-0.519-0.69,0.621-1.329,1.087-0.639l3.903,5.336l3.954-5.353
			c0.432-0.657,1.503-0.104,1.036,0.621l-4.334,5.819v3.868c0,0.432-0.346,0.639-0.64,0.639c-0.346,0-0.638-0.207-0.638-0.639
			V77.746z"/>
		<path fill="#333333" d="M32.337,78.334v3.35c0,0.794-1.261,0.794-1.261,0.017v-9.912c0-0.362,0.26-0.604,0.64-0.604h4.092
			c2.988,0,4.508,1.692,4.508,3.713c0,1.744-0.951,3.005-3.074,3.367l2.797,3.022c0.657,0.656-0.292,1.416-0.863,0.829l-3.488-3.782
			H32.337z M32.337,77.246h3.488c2.262,0,3.247-1.053,3.211-2.348c-0.017-1.416-1.209-2.556-3.211-2.556h-3.488V77.246z"/>
		<path fill="#333333" d="M47.144,79.283l-1.399,2.729c-0.311,0.639-1.451,0.191-1.139-0.501l5.214-10.275
			c0.104-0.224,0.346-0.328,0.571-0.328c0.224,0,0.432,0.103,0.553,0.328l5.197,10.223c0.45,0.743-0.828,1.175-1.156,0.501
			l-1.347-2.677H47.144z M50.391,72.756l-2.729,5.439h5.44L50.391,72.756z"/>
		<path fill="#333333" d="M67.977,71.185c0.846,0,0.846,1.192,0,1.192h-3.85c0,3.108,0.017,6.268,0.017,9.376
			c0,0.432-0.363,0.639-0.657,0.639c-0.292,0-0.621-0.207-0.621-0.639v-9.376h-3.833c-0.811,0-0.811-1.192,0-1.192H67.977z"/>
	</g>
</g>
</svg>
