<?xml version="1.0" encoding="utf-8"?>
<!-- Generator: Adobe Illustrator 17.0.0, SVG Export Plug-In . SVG Version: 6.00 Build 0)  -->
<!DOCTYPE svg PUBLIC "-//W3C//DTD SVG 1.1//EN" "http://www.w3.org/Graphics/SVG/1.1/DTD/svg11.dtd">
<svg version="1.1" id="Capa_1" xmlns="http://www.w3.org/2000/svg" xmlns:xlink="http://www.w3.org/1999/xlink" x="0px" y="0px"
	 width="450px" height="589px" viewBox="0 0 450 589" enable-background="new 0 0 450 589" xml:space="preserve">
<g>
	<g>
		<path fill="#D63F49" d="M176.51,252.319v195.562h265.592v-190.88c-63.819,45.162-129.488,91.633-129.488,91.633L176.51,252.319z"
			/>
	</g>
	<path fill="#303030" d="M231.33,163.703L126.18,89.293l0,0L0,0v452.842h126.18V168.545l50.33,35.617l136.104,96.316
		c0,0,65.668-46.471,129.488-91.633v-11.833V14.548C407.969,38.702,231.33,163.703,231.33,163.703z"/>
	<rect y="474.214" fill="#303030" width="16.784" height="114.786"/>
	<polygon fill="#303030" points="166.321,474.214 107.019,569.42 47.719,474.214 31.055,474.214 31.055,589 47.84,589 
		47.84,506.153 99.443,589 114.596,589 166.2,506.152 166.2,589 182.984,589 182.984,474.214 	"/>
	<polygon fill="#303030" points="383.395,513.726 344.064,474.214 320.693,474.214 372.314,526.449 315.097,589 337.664,589 
		383.938,538.622 426.849,589 450,589 395.039,525.869 442.101,474.214 419.456,474.214 	"/>
	<path fill="#303030" d="M225.083,572.467c-6.805,0-12.342-5.535-12.342-12.338v-23.314h76.353v-15.793h-76.353v-17.69
		c0-6.803,5.536-12.338,12.342-12.338h79.314v-16.78h-79.314c-16.06,0-29.126,13.062-29.126,29.118v56.797
		c0,14.792,11.092,27.033,25.396,28.871h83.044v-16.533H225.083z"/>
</g>
</svg>
